<svg id="africa_one_logo" data-name="africa one logo" xmlns="http://www.w3.org/2000/svg" width="179.458" height="43.35" viewBox="0 0 179.458 43.35">
  <path id="Union_2" data-name="Union 2" d="M19.527,41.3c-.548-.029-1.1-.258-1.334-1.26-.561-2.348-1.306-3.236-1.98-5.556a15.97,15.97,0,0,1-.534-2.606c1.222-.7,3.2-1.776,4.311-2.549a65.277,65.277,0,0,0,9.662-8.22,49.806,49.806,0,0,0,4.859-5.772c.365.014.716.029,1.081.058.744.071.8.143.548.83-.323.96-1.516,3.853-1.643,4.167-.14.358-3.37,3.409-3.468,3.509-.506.473-.408.745-.45,2.435-.014,1.131.351,2.549.365,3.68a2.18,2.18,0,0,1-.238.989,22.431,22.431,0,0,1-1.447,2.606,7.738,7.738,0,0,0-1.193,2.449,6.189,6.189,0,0,1-1.025,2.148,24.6,24.6,0,0,1-3.989,3.036,9.082,9.082,0,0,1-1.735.133C20.774,41.38,20.167,41.355,19.527,41.3Zm14.38-5.356a3.028,3.028,0,0,1-.815-.831,29.729,29.729,0,0,1,.337-3.581.82.82,0,0,1,.253-.558c.632-.8,1.573-1.69,2.233-2.463.112-.115.211-.287.534-.158.253.1.225.329.211.5a18.347,18.347,0,0,1-.6,3.566c-.182.487-.688,2.577-.912,2.964-.149.347-.787.56-1.2.56ZM5.737,34.573a5.384,5.384,0,0,1-1.643-.315,2.242,2.242,0,0,1-1.531-2.077,8.08,8.08,0,0,1,.856-4.052,31.231,31.231,0,0,1,4.915-7.447c.334-.4.667-.778,1.013-1.161h0c-.435.115-.87.244-1.306.373l-.014.014c-.519.143-.857.229-1.348.387-.394.129-.45.186-.773-.086-1.531-1.333-3.243-2.764-4.8-4.067-.267-.229-.337-.229-.295-.573.1-1,.463-3.337.463-3.337S.654,10.672.26,9.8c-.449-.989-.267-.916.169-1.518,1.418-1.919,3.735-4.826,5.42-6.974a1.333,1.333,0,0,1,.8-.444c2.262-.316,4.522-.6,6.8-.859.154-.014.393.014.436.143a8.12,8.12,0,0,0,1.291,2.062,10.034,10.034,0,0,0,2.093.9,11.454,11.454,0,0,1,1.573.687l.006-.008-.008,0s0,0,.011-.008l0,0,.008-.007-.005,0c.263-.325.512-.649.637-.775a5.9,5.9,0,0,1,1.91.128c1.446.172,3.047.33,4.494.444.589.058.758.244.983.817.169.4,2.584,6.931,2.584,6.931s.2.2.492.53c-.112.2-.239.387-.365.573a30.792,30.792,0,0,1-5.757,6.186,33.9,33.9,0,0,1-6.362,4.368,18.621,18.621,0,0,1-2.836,1.246h-.005a9.092,9.092,0,0,1-.347-2.751c.029-.458.042-.629-.337-.874-.506-.315-1.278-.83-1.826-1.217-.014-.014-.028-.014-.042-.029a.252.252,0,0,0-.07-.058.726.726,0,0,0-.112-.086,1.739,1.739,0,0,0-.337-.215l-.006,0c-.349.54-.669,1.049-.669,1.049l.014.029a7.1,7.1,0,0,0-1.124,3.036,1.9,1.9,0,0,0,.857,1.948,3.134,3.134,0,0,0,2.037.343,10.84,10.84,0,0,0,1.545-.286,17.141,17.141,0,0,0,3.608-1.49,35.481,35.481,0,0,0,6.5-4.453,31.741,31.741,0,0,0,5.9-6.344c.1-.143.2-.287.281-.43a8.448,8.448,0,0,0,1.348-3.194,2.006,2.006,0,0,0-1.516-2.549,5.765,5.765,0,0,0-2.514.143q-.189-.515-.379-.988c.618-.258,1.236-.5,1.854-.717a13.262,13.262,0,0,1,4.985-.945,3.263,3.263,0,0,1,2.331.888,3.019,3.019,0,0,1,.646,2.663,12.445,12.445,0,0,1-1.531,4.311,30.218,30.218,0,0,1-2.093,3.294A49.86,49.86,0,0,1,29.119,20.6a64.3,64.3,0,0,1-9.55,8.121c-1.011.7-2.036,1.375-3.089,2a35.357,35.357,0,0,1-5.35,2.663,14.4,14.4,0,0,1-5.185,1.191Zm159.7-9.117a7.939,7.939,0,0,1-2.026-5.617v-.093a7.992,7.992,0,0,1,2.045-5.7,6.73,6.73,0,0,1,5.154-2.241,6.219,6.219,0,0,1,4.891,2.178,7.683,7.683,0,0,1,1.964,5.349c0,.3,0,.537-.01.733h-12.6a6.288,6.288,0,0,0,1.67,4.42,5.528,5.528,0,0,0,4.161,1.7,6.407,6.407,0,0,0,4.83-2.178l.962.96a7.242,7.242,0,0,1-5.8,2.633A6.923,6.923,0,0,1,165.434,25.456Zm1.194-10.625a5.572,5.572,0,0,0-1.732,3.913h11.037a5.652,5.652,0,0,0-1.579-3.913,4.958,4.958,0,0,0-3.747-1.61A5.52,5.52,0,0,0,166.628,14.83Zm-40.107,9.7a10.473,10.473,0,0,1-3.048-7.672,10.489,10.489,0,0,1,3.048-7.672,10.551,10.551,0,0,1,14.956,0,10.415,10.415,0,0,1,3.078,7.672,10.422,10.422,0,0,1-3.078,7.672,10.624,10.624,0,0,1-14.956,0Zm1.043-14.3a9.129,9.129,0,0,0-2.6,6.629,9.074,9.074,0,0,0,2.582,6.629,8.691,8.691,0,0,0,6.47,2.653,8.535,8.535,0,0,0,6.409-2.653,8.994,8.994,0,0,0,2.572-6.629,9.072,9.072,0,0,0-2.582-6.629,9.029,9.029,0,0,0-12.848,0Zm30.65,14.188V18.259c0-2.985-1.762-4.895-4.455-4.895-2.582,0-4.334,1.859-4.677,4.719-.021.206-.041.434-.051.66-.01.134-.01.269-.01.4v8.1h-1.469V12.2h1.469v2.9c.01-.01.01-.031.02-.041.861-2.065,2.521-3.1,5.053-3.1,3.362,0,5.59,2.324,5.59,6v6.33c0,1.229.293,1.7,1.144,1.7.091,0,.294-.031.608-.062v1.26a2.706,2.706,0,0,1-.85.144C159,27.335,158.214,26.355,158.214,24.413Zm-64.378-.279a7.672,7.672,0,0,1-2.309-5.7,7.618,7.618,0,0,1,2.309-5.669,7.827,7.827,0,0,1,5.71-2.3,7.657,7.657,0,0,1,5.914,2.6l-2.167,2.3a4.909,4.909,0,0,0-3.747-1.641,4.371,4.371,0,0,0-3.25,1.342,4.744,4.744,0,0,0-1.286,3.377A4.747,4.747,0,0,0,96.3,21.822a4.371,4.371,0,0,0,3.25,1.342,4.855,4.855,0,0,0,3.747-1.662l2.167,2.3a7.657,7.657,0,0,1-5.914,2.6A7.8,7.8,0,0,1,93.836,24.134Zm15.026-.031a7.943,7.943,0,0,1-2.106-5.617,7.817,7.817,0,0,1,2.106-5.586,6.915,6.915,0,0,1,5.266-2.272c2.379,0,4.161,1.073,4.718,2.509V10.959H122.6a12.663,12.663,0,0,0-1.357,5.906,12.2,12.2,0,0,0,2.917,8.22v.991a5.153,5.153,0,0,1-1.732.237,3.787,3.787,0,0,1-2.045-.475,2.758,2.758,0,0,1-1.195-1.818c-1.023,1.58-2.724,2.355-5.063,2.355A6.931,6.931,0,0,1,108.862,24.1Zm2.6-8.9a4.6,4.6,0,0,0-1.225,3.284,4.6,4.6,0,0,0,1.225,3.284,4.191,4.191,0,0,0,3.129,1.312,4.325,4.325,0,0,0,3.19-1.312,4.43,4.43,0,0,0,1.316-3.284,4.428,4.428,0,0,0-1.316-3.284,4.324,4.324,0,0,0-3.19-1.311A4.19,4.19,0,0,0,111.464,15.2Zm-26.68,7.28V10.959H88.3V21.532c0,1.166.232,1.579,1.022,1.579a3.029,3.029,0,0,0,.618-.061v3.015a5,5,0,0,1-1.762.237C85.928,26.3,84.784,25.022,84.784,22.482ZM73.494,26V10.959h3.483V13.2a4.559,4.559,0,0,1,4.395-2.54,5.173,5.173,0,0,1,1.052.093v3.459a8.085,8.085,0,0,0-1.469-.145,3.729,3.729,0,0,0-3.978,4.027V26ZM57.9,26l-1.671-4.15H47.157L45.487,26H41.619L50.144,5.2h3.1L61.768,26Zm-9.609-7.228h6.785L51.684,10.3Zm16.09,7.218V14.2h-2.4V10.949h2.4V10.2c0-2.3.465-3.521,1.61-4.45a5.639,5.639,0,0,1,3.655-.981,7.4,7.4,0,0,1,1.519.124V7.964a4.957,4.957,0,0,0-1.347-.144c-1.317,0-1.934.6-1.924,2.127v1.012h2.785v3.253H67.894V25.993ZM84.429,7.076a2.091,2.091,0,1,1,2.107,2.116A2.093,2.093,0,0,1,84.429,7.076Z" fill="#fff"/>
  <path id="Path_14" data-name="Path 14" d="M4.857-8.426A4.377,4.377,0,0,1,6.516-8.1a4.576,4.576,0,0,1,1.418.9l-.58.732a3.638,3.638,0,0,0-1.146-.773,3.355,3.355,0,0,0-1.339-.281,3.449,3.449,0,0,0-1.723.442,3.312,3.312,0,0,0-1.239,1.2,3.186,3.186,0,0,0-.454,1.667,3.191,3.191,0,0,0,.454,1.664,3.3,3.3,0,0,0,1.242,1.2A3.454,3.454,0,0,0,4.869-.9,3.5,3.5,0,0,0,6.2-1.166,3.647,3.647,0,0,0,7.354-1.91l.592.662A4.974,4.974,0,0,1,6.492-.3a4.2,4.2,0,0,1-1.67.349A4.317,4.317,0,0,1,2.64-.521,4.277,4.277,0,0,1,1.063-2.068,4.113,4.113,0,0,1,.48-4.213a3.985,3.985,0,0,1,.589-2.118A4.317,4.317,0,0,1,2.66-7.86,4.394,4.394,0,0,1,4.857-8.426ZM11.9-6.346a3.376,3.376,0,0,1,1.655.4A2.878,2.878,0,0,1,14.7-4.816a3.29,3.29,0,0,1,.41,1.646,3.326,3.326,0,0,1-.41,1.664,2.918,2.918,0,0,1-1.14,1.134A3.338,3.338,0,0,1,11.9.035a3.354,3.354,0,0,1-1.658-.407A2.892,2.892,0,0,1,9.1-1.506,3.345,3.345,0,0,1,8.7-3.17,3.3,3.3,0,0,1,9.1-4.819a2.858,2.858,0,0,1,1.14-1.125A3.393,3.393,0,0,1,11.9-6.346Zm0,.85a2.314,2.314,0,0,0-1.172.3,2.077,2.077,0,0,0-.809.829,2.5,2.5,0,0,0-.287,1.21A2.53,2.53,0,0,0,9.92-1.939a2.092,2.092,0,0,0,.809.835A2.3,2.3,0,0,0,11.9-.8a2.3,2.3,0,0,0,1.172-.3,2.092,2.092,0,0,0,.809-.835,2.53,2.53,0,0,0,.287-1.219,2.5,2.5,0,0,0-.287-1.213,2.077,2.077,0,0,0-.812-.826A2.319,2.319,0,0,0,11.9-5.5Zm8.227-.861a2.351,2.351,0,0,1,1.767.653,2.474,2.474,0,0,1,.636,1.8V0h-.937V-3.65a1.754,1.754,0,0,0-.475-1.307A1.787,1.787,0,0,0,19.8-5.426a2.049,2.049,0,0,0-1.482.565A2.3,2.3,0,0,0,17.678-3.4V0h-.932V-6.322h.932v1.389A2.475,2.475,0,0,1,20.127-6.357Zm7.869,0a2.351,2.351,0,0,1,1.767.653A2.474,2.474,0,0,1,30.4-3.9V0h-.937V-3.65a1.754,1.754,0,0,0-.475-1.307,1.787,1.787,0,0,0-1.312-.469,2.049,2.049,0,0,0-1.482.565A2.3,2.3,0,0,0,25.547-3.4V0h-.932V-6.322h.932v1.389A2.475,2.475,0,0,1,28-6.357ZM35-6.346a2.692,2.692,0,0,1,2.244.952,3.776,3.776,0,0,1,.68,2.6H32.771a2.249,2.249,0,0,0,.741,1.471,2.272,2.272,0,0,0,1.55.545,2.819,2.819,0,0,0,1.084-.205,2.6,2.6,0,0,0,.873-.586l.516.551a3.106,3.106,0,0,1-1.11.779,3.651,3.651,0,0,1-1.433.275,3.293,3.293,0,0,1-1.641-.4,2.806,2.806,0,0,1-1.11-1.128,3.424,3.424,0,0,1-.4-1.664,3.367,3.367,0,0,1,.4-1.661,2.839,2.839,0,0,1,1.122-1.125A3.3,3.3,0,0,1,35-6.346ZM37.09-3.562a2.035,2.035,0,0,0-.618-1.447,2.1,2.1,0,0,0-1.491-.533,2.166,2.166,0,0,0-1.5.539,2.2,2.2,0,0,0-.706,1.441Zm4.992-2.783a3.574,3.574,0,0,1,1.345.246,2.982,2.982,0,0,1,1.04.686l-.516.662a2.622,2.622,0,0,0-1.881-.732,2.286,2.286,0,0,0-1.16.293,2.06,2.06,0,0,0-.8.823,2.5,2.5,0,0,0-.287,1.21,2.5,2.5,0,0,0,.287,1.213,2.126,2.126,0,0,0,.8.829,2.234,2.234,0,0,0,1.16.3,2.844,2.844,0,0,0,1.119-.211,2.224,2.224,0,0,0,.838-.609l.539.58a2.954,2.954,0,0,1-1.081.8,3.54,3.54,0,0,1-1.45.287,3.237,3.237,0,0,1-1.623-.4A2.856,2.856,0,0,1,39.3-1.494a3.384,3.384,0,0,1-.4-1.664,3.329,3.329,0,0,1,.407-1.661,2.868,2.868,0,0,1,1.134-1.125A3.336,3.336,0,0,1,42.082-6.346ZM49.529-.434a2.571,2.571,0,0,1-1.43.48A1.567,1.567,0,0,1,46.928-.4a1.858,1.858,0,0,1-.439-1.351V-5.361H45.58v-.756h.908v-1.67h.926v1.67l2-.018v.773h-2v3.439a1.251,1.251,0,0,0,.211.812.783.783,0,0,0,.633.249,1.875,1.875,0,0,0,1.008-.328ZM50.941,0V-6.322h.92V0Zm.451-8.783a.582.582,0,0,1,.439.185.641.641,0,0,1,.176.46.651.651,0,0,1-.176.463.577.577,0,0,1-.439.188.572.572,0,0,1-.437-.185.655.655,0,0,1-.173-.466.647.647,0,0,1,.173-.46A.572.572,0,0,1,51.393-8.783Zm6.129,2.426a2.351,2.351,0,0,1,1.767.653,2.474,2.474,0,0,1,.636,1.8V0h-.937V-3.65a1.754,1.754,0,0,0-.475-1.307A1.787,1.787,0,0,0,57.2-5.426a2.049,2.049,0,0,0-1.482.565A2.3,2.3,0,0,0,55.072-3.4V0h-.932V-6.322h.932v1.389A2.475,2.475,0,0,1,57.521-6.357Zm10,5.7a3.11,3.11,0,0,1-.4,1.6A2.667,2.667,0,0,1,66,1.983a3.62,3.62,0,0,1-1.667.366,4.258,4.258,0,0,1-2.59-.908l.428-.721a3.533,3.533,0,0,0,1,.595,3.335,3.335,0,0,0,1.131.208A2.313,2.313,0,0,0,65.956.935,2.061,2.061,0,0,0,66.58-.639v-.955a2.343,2.343,0,0,1-.935.979,2.777,2.777,0,0,1-1.392.34,2.87,2.87,0,0,1-1.494-.39,2.691,2.691,0,0,1-1.022-1.087,3.351,3.351,0,0,1-.366-1.582,3.294,3.294,0,0,1,.36-1.562,2.693,2.693,0,0,1,1.008-1.072,2.824,2.824,0,0,1,1.485-.39,2.8,2.8,0,0,1,1.4.34,2.457,2.457,0,0,1,.952.979V-6.322h.938Zm-3.1-.4a2.163,2.163,0,0,0,1.119-.29,2.03,2.03,0,0,0,.768-.8A2.365,2.365,0,0,0,66.58-3.3a2.4,2.4,0,0,0-.275-1.16,2.009,2.009,0,0,0-.768-.8,2.18,2.18,0,0,0-1.119-.287,2.168,2.168,0,0,0-1.113.287,2.05,2.05,0,0,0-.773.8A2.361,2.361,0,0,0,62.25-3.3a2.321,2.321,0,0,0,.281,1.146,2.077,2.077,0,0,0,.773.8A2.151,2.151,0,0,0,64.418-1.066Zm9.369-1.055L72.85,0H71.83L75.6-8.4h1L80.35,0H79.307l-.937-2.121Zm2.279-5.186L74.2-3.047h3.768Zm7.7-.768a1.117,1.117,0,0,0-.794.3,1.076,1.076,0,0,0-.319.826v.814h1.811v.773H82.652V0h-.926V-5.361h-.814v-.773h.814v-.691a2.236,2.236,0,0,1,.284-1.148,1.887,1.887,0,0,1,.744-.732,2.085,2.085,0,0,1,1-.246,2.338,2.338,0,0,1,1.359.445l-.387.756A1.642,1.642,0,0,0,83.766-8.074Zm2.59,3.152a2.4,2.4,0,0,1,.891-1.058,2.579,2.579,0,0,1,1.377-.378v.943a2.181,2.181,0,0,0-1.582.548,2.27,2.27,0,0,0-.686,1.509V0h-.932V-6.322h.932ZM89.883,0V-6.322h.92V0Zm.451-8.783a.582.582,0,0,1,.439.185.641.641,0,0,1,.176.46.651.651,0,0,1-.176.463.577.577,0,0,1-.439.188.572.572,0,0,1-.437-.185.655.655,0,0,1-.173-.466A.647.647,0,0,1,89.9-8.6.572.572,0,0,1,90.334-8.783Zm5.291,2.438A3.574,3.574,0,0,1,96.97-6.1a2.982,2.982,0,0,1,1.04.686l-.516.662a2.622,2.622,0,0,0-1.881-.732,2.286,2.286,0,0,0-1.16.293,2.06,2.06,0,0,0-.8.823,2.5,2.5,0,0,0-.287,1.21,2.5,2.5,0,0,0,.287,1.213,2.126,2.126,0,0,0,.8.829,2.234,2.234,0,0,0,1.16.3,2.844,2.844,0,0,0,1.119-.211,2.224,2.224,0,0,0,.838-.609l.539.58a2.954,2.954,0,0,1-1.081.8,3.54,3.54,0,0,1-1.45.287,3.237,3.237,0,0,1-1.623-.4,2.856,2.856,0,0,1-1.11-1.128,3.384,3.384,0,0,1-.4-1.664,3.329,3.329,0,0,1,.407-1.661,2.868,2.868,0,0,1,1.134-1.125A3.336,3.336,0,0,1,95.625-6.346Zm7.758,5.373a2.693,2.693,0,0,1-2.314,1.02A2.43,2.43,0,0,1,99.94-.205,1.847,1.847,0,0,1,99.185-.9a1.876,1.876,0,0,1-.267-.987A1.577,1.577,0,0,1,99.542-3.2a2.824,2.824,0,0,1,1.743-.5h2.074v-.369a1.387,1.387,0,0,0-.431-1.093,1.842,1.842,0,0,0-1.263-.384,3.549,3.549,0,0,0-2,.721l-.393-.686a5.868,5.868,0,0,1,1.242-.647,3.988,3.988,0,0,1,1.336-.2,2.573,2.573,0,0,1,1.8.574,2.1,2.1,0,0,1,.642,1.605L104.3,0h-.914Zm-2.133.205a2.42,2.42,0,0,0,1.371-.378,1.773,1.773,0,0,0,.75-1.04v-.756H101.4q-1.605,0-1.605,1.02a1.018,1.018,0,0,0,.4.841A1.655,1.655,0,0,0,101.25-.768Z" transform="translate(75.161 41)" fill="#fff"/>
</svg>
