<svg xmlns="http://www.w3.org/2000/svg" width="87.425" height="40" viewBox="0 0 87.425 40">
  <g id="Group_270" data-name="Group 270" transform="translate(-1503.575 -17)">
    <text id="AfricaOne" transform="translate(1569 27)" fill="#fff" font-size="10" font-family="SourceSansPro-Regular, Source Sans Pro" letter-spacing="0.025em"><tspan x="-21.38" y="0">AfricaOne</tspan></text>
    <text id="Mail" transform="translate(1568 50)" fill="#fff" font-size="24" font-family="SourceSansPro-Semibold, Source Sans Pro" font-weight="600"><tspan x="-21.528" y="0">Mail</tspan></text>
    <path id="Icon_awesome-envelope-open-text" data-name="Icon awesome-envelope-open-text" d="M11.247,13.8H21.472a1.022,1.022,0,0,0,1.022-1.022V11.759a1.022,1.022,0,0,0-1.022-1.022H11.247a1.022,1.022,0,0,0-1.022,1.022v1.022A1.022,1.022,0,0,0,11.247,13.8Zm-1.022,5.112a1.022,1.022,0,0,0,1.022,1.022H21.472a1.022,1.022,0,0,0,1.022-1.022V17.893a1.022,1.022,0,0,0-1.022-1.022H11.247a1.022,1.022,0,0,0-1.022,1.022Zm6.135,7.741a5.105,5.105,0,0,1-2.995-.971L0,16.031V29.652a3.067,3.067,0,0,0,3.067,3.067H29.652a3.067,3.067,0,0,0,3.067-3.067V16.031L19.354,25.686A5.11,5.11,0,0,1,16.36,26.657ZM31.544,10.413c-.566-.444-1.1-.861-1.892-1.458V6.135a3.067,3.067,0,0,0-3.067-3.067H21.629l-.578-.419C19.977,1.864,17.842-.022,16.36,0c-1.483-.022-3.616,1.864-4.691,2.648l-.578.419H6.135A3.067,3.067,0,0,0,3.067,6.135V8.956c-.791.6-1.327,1.014-1.892,1.458A3.067,3.067,0,0,0,0,12.827v.681l6.135,4.432V6.135h20.45v11.8l6.135-4.432v-.681a3.067,3.067,0,0,0-1.175-2.414Z" transform="translate(1503.575 17.724)" fill="#fff"/>
  </g>
</svg>
