<svg xmlns="http://www.w3.org/2000/svg" width="11.429" height="10" viewBox="0 0 11.429 10">
  <path id="Icon_awesome-camera" data-name="Icon awesome-camera" d="M11.429,4.75v6.429a1.072,1.072,0,0,1-1.071,1.071H1.071A1.072,1.072,0,0,1,0,11.179V4.75A1.072,1.072,0,0,1,1.071,3.679H3.036l.275-.734a1.07,1.07,0,0,1,1-.694h2.8a1.07,1.07,0,0,1,1,.694l.277.734h1.964A1.072,1.072,0,0,1,11.429,4.75ZM8.393,7.964a2.679,2.679,0,1,0-2.679,2.679A2.681,2.681,0,0,0,8.393,7.964Zm-.714,0A1.964,1.964,0,1,1,5.714,6,1.967,1.967,0,0,1,7.679,7.964Z" transform="translate(0 -2.25)" fill="#f5b60e"/>
</svg>
