<svg xmlns="http://www.w3.org/2000/svg" width="10.769" height="10" viewBox="0 0 10.769 10">
  <path id="Icon_ionic-ios-star" data-name="Icon ionic-ios-star" d="M12.611,6.837H9.075L8,3.63a.389.389,0,0,0-.731,0L6.195,6.837H2.635a.386.386,0,0,0-.385.385.283.283,0,0,0,.007.065.37.37,0,0,0,.161.272L5.325,9.606,4.209,12.849a.386.386,0,0,0,.132.433.372.372,0,0,0,.216.094.471.471,0,0,0,.24-.087l2.837-2.022,2.837,2.022a.45.45,0,0,0,.24.087.345.345,0,0,0,.214-.094.381.381,0,0,0,.132-.433L9.942,9.606l2.882-2.067.07-.06a.368.368,0,0,0-.284-.642Z" transform="translate(-2.25 -3.375)" fill="#f5b60e"/>
</svg>
