<svg xmlns="http://www.w3.org/2000/svg" width="10.769" height="10" viewBox="0 0 10.769 10">
  <path id="Icon_ionic-ios-star-half" data-name="Icon ionic-ios-star-half" d="M12.611,6.837H9.075L8,3.63a.389.389,0,0,0-.731,0L6.195,6.837H2.635a.386.386,0,0,0-.385.385.283.283,0,0,0,.007.065.37.37,0,0,0,.161.272L5.325,9.606,4.209,12.849a.386.386,0,0,0,.132.433.372.372,0,0,0,.216.094.471.471,0,0,0,.24-.087l2.837-2.022,2.837,2.022a.45.45,0,0,0,.24.087.345.345,0,0,0,.214-.094.381.381,0,0,0,.132-.433L9.942,9.606l2.882-2.067.07-.06a.368.368,0,0,0-.284-.642Zm-1.139.846L9.553,9.06a.675.675,0,0,0-.245.764l.724,2.108a.1.1,0,0,1-.147.111L8.024,10.716l0,0a.9.9,0,0,1-.387-.733V4.945a.047.047,0,0,1,.091-.014h0l.712,2.12a.672.672,0,0,0,.637.459h2.339A.1.1,0,0,1,11.471,7.683Z" transform="translate(-2.25 -3.375)" fill="#f5b60e"/>
</svg>
