<svg xmlns="http://www.w3.org/2000/svg" width="30" height="30" viewBox="0 0 30 30">
  <g id="Group_249" data-name="Group 249" transform="translate(-345 -506)">
    <circle id="Ellipse_20" data-name="Ellipse 20" cx="15" cy="15" r="15" transform="translate(345 506)" fill="#0072b1"/>
    <path id="Icon_awesome-linkedin-in" data-name="Icon awesome-linkedin-in" d="M3.134,14H.231V4.654h2.9ZM1.681,3.379a1.689,1.689,0,1,1,1.681-1.7A1.7,1.7,0,0,1,1.681,3.379ZM14,14H11.1V9.451c0-1.084-.022-2.475-1.509-2.475-1.509,0-1.74,1.178-1.74,2.4V14h-2.9V4.654H7.736V5.929h.041a3.05,3.05,0,0,1,2.746-1.509C13.46,4.419,14,6.354,14,8.866V14Z" transform="translate(353 513.999)" fill="#fff"/>
  </g>
</svg>
