<svg xmlns="http://www.w3.org/2000/svg" width="35.775" height="38.527" viewBox="0 0 35.775 38.527">
  <path id="Icon_ionic-ios-mail-open" data-name="Icon ionic-ios-mail-open" d="M38.247,17.541C37.9,17.2,24.634,3.66,24.634,3.66a4.724,4.724,0,0,0-6.742.009S4.682,17.128,4.278,17.549a3.455,3.455,0,0,0-.9,2.245V38.025a2.76,2.76,0,0,0,2.752,2.752H36.4a2.76,2.76,0,0,0,2.752-2.752V19.708A3.31,3.31,0,0,0,38.247,17.541Zm-1.668,3.638L29.6,28.471a.166.166,0,0,0,0,.241l6.476,6.9a1.116,1.116,0,0,1,0,1.582,1.121,1.121,0,0,1-1.582,0L21.512,23.328a.338.338,0,0,0-.5,0L8.036,37.183a1.121,1.121,0,0,1-1.582,0,1.116,1.116,0,0,1,0-1.582l6.476-6.9a.183.183,0,0,0,0-.241l-7-7.293a1.962,1.962,0,0,1,1.385-3.079h27.9C36.631,18.082,37.413,20.335,36.579,21.178Z" transform="translate(-3.375 -2.25)" fill="#fff"/>
</svg>
