<svg xmlns="http://www.w3.org/2000/svg" width="26" height="26" viewBox="0 0 26 26">
  <g id="Group_3" data-name="Group 3" transform="translate(-1519 -12)">
    <circle id="Ellipse_20" data-name="Ellipse 20" cx="13" cy="13" r="13" transform="translate(1519 12)" fill="red"/>
    <path id="Icon_metro-youtube-play" data-name="Icon metro-youtube-play" d="M12.571,11.61a.45.45,0,0,0-.234-.422l-4-2.5a.471.471,0,0,0-.508-.016.465.465,0,0,0-.258.438v5a.465.465,0,0,0,.258.438.54.54,0,0,0,.242.062.445.445,0,0,0,.266-.078l4-2.5a.45.45,0,0,0,.234-.422Zm4,0q0,.75-.008,1.172T16.5,13.849A8.642,8.642,0,0,1,16.321,15a1.828,1.828,0,0,1-.539.961,1.647,1.647,0,0,1-.969.453,51.219,51.219,0,0,1-5.242.2,51.219,51.219,0,0,1-5.242-.2,1.665,1.665,0,0,1-.973-.453A1.816,1.816,0,0,1,2.813,15a9.671,9.671,0,0,1-.168-1.152q-.059-.645-.066-1.066T2.571,11.61q0-.75.008-1.172t.066-1.066A8.642,8.642,0,0,1,2.821,8.22a1.828,1.828,0,0,1,.539-.961,1.647,1.647,0,0,1,.969-.453,51.219,51.219,0,0,1,5.242-.2,51.219,51.219,0,0,1,5.242.2,1.665,1.665,0,0,1,.973.453,1.816,1.816,0,0,1,.543.961A9.67,9.67,0,0,1,16.5,9.372q.059.645.066,1.066T16.571,11.61Z" transform="translate(1522.429 13.39)" fill="#fff"/>
  </g>
</svg>
